<mxfile host="app.diagrams.net" agent="Mozilla/5.0 (Windows NT 10.0; Win64; x64) AppleWebKit/537.36 (KHTML, like Gecko) Chrome/126.0.0.0 Safari/537.36" version="24.7.4">
  <diagram name="Page-1" id="sJKeThpk2iUNz69NSnVz">
    <mxGraphModel dx="954" dy="592" grid="1" gridSize="10" guides="1" tooltips="1" connect="1" arrows="1" fold="1" page="1" pageScale="1" pageWidth="850" pageHeight="1100" math="0" shadow="0">
      <root>
        <mxCell id="0" />
        <mxCell id="1" parent="0" />
        <mxCell id="n_9PKvbl7j-ViEUUjvDs-1" value="mahasiswa" style="whiteSpace=wrap;html=1;align=center;" parent="1" vertex="1">
          <mxGeometry x="140" y="475" width="100" height="40" as="geometry" />
        </mxCell>
        <mxCell id="n_9PKvbl7j-ViEUUjvDs-2" value="nama" style="ellipse;whiteSpace=wrap;html=1;align=center;" parent="1" vertex="1">
          <mxGeometry x="160" y="410" width="60" height="40" as="geometry" />
        </mxCell>
        <mxCell id="n_9PKvbl7j-ViEUUjvDs-3" value="nim" style="ellipse;whiteSpace=wrap;html=1;align=center;fontStyle=4;" parent="1" vertex="1">
          <mxGeometry x="40" y="430" width="60" height="40" as="geometry" />
        </mxCell>
        <mxCell id="n_9PKvbl7j-ViEUUjvDs-4" value="mendaftar" style="shape=rhombus;perimeter=rhombusPerimeter;whiteSpace=wrap;html=1;align=center;" parent="1" vertex="1">
          <mxGeometry x="370" y="460" width="100" height="70" as="geometry" />
        </mxCell>
        <mxCell id="n_9PKvbl7j-ViEUUjvDs-11" value="anggota perpustakaan" style="whiteSpace=wrap;html=1;align=center;" parent="1" vertex="1">
          <mxGeometry x="620" y="470" width="100" height="40" as="geometry" />
        </mxCell>
        <mxCell id="n_9PKvbl7j-ViEUUjvDs-12" value="" style="endArrow=none;html=1;rounded=0;exitX=1;exitY=0.5;exitDx=0;exitDy=0;" parent="1" source="n_9PKvbl7j-ViEUUjvDs-1" target="n_9PKvbl7j-ViEUUjvDs-4" edge="1">
          <mxGeometry relative="1" as="geometry">
            <mxPoint x="340" y="620" as="sourcePoint" />
            <mxPoint x="500" y="620" as="targetPoint" />
          </mxGeometry>
        </mxCell>
        <mxCell id="qQHPtw9gU3DnxDSDHL4Y-14" value="many" style="edgeLabel;html=1;align=center;verticalAlign=middle;resizable=0;points=[];" parent="n_9PKvbl7j-ViEUUjvDs-12" vertex="1" connectable="0">
          <mxGeometry x="-0.1" y="-1" relative="1" as="geometry">
            <mxPoint y="14" as="offset" />
          </mxGeometry>
        </mxCell>
        <mxCell id="n_9PKvbl7j-ViEUUjvDs-13" value="" style="endArrow=none;html=1;rounded=0;exitX=1;exitY=0.5;exitDx=0;exitDy=0;entryX=0;entryY=0.5;entryDx=0;entryDy=0;entryPerimeter=0;" parent="1" source="n_9PKvbl7j-ViEUUjvDs-4" target="n_9PKvbl7j-ViEUUjvDs-11" edge="1">
          <mxGeometry relative="1" as="geometry">
            <mxPoint x="470" y="530" as="sourcePoint" />
            <mxPoint x="630" y="530" as="targetPoint" />
          </mxGeometry>
        </mxCell>
        <mxCell id="qQHPtw9gU3DnxDSDHL4Y-15" value="many" style="edgeLabel;html=1;align=center;verticalAlign=middle;resizable=0;points=[];" parent="n_9PKvbl7j-ViEUUjvDs-13" vertex="1" connectable="0">
          <mxGeometry x="-0.0833" y="-1" relative="1" as="geometry">
            <mxPoint x="5" y="14" as="offset" />
          </mxGeometry>
        </mxCell>
        <mxCell id="n_9PKvbl7j-ViEUUjvDs-14" value="meminjam" style="shape=rhombus;perimeter=rhombusPerimeter;whiteSpace=wrap;html=1;align=center;" parent="1" vertex="1">
          <mxGeometry x="630" y="640" width="90" height="60" as="geometry" />
        </mxCell>
        <mxCell id="n_9PKvbl7j-ViEUUjvDs-15" value="" style="endArrow=none;html=1;rounded=0;exitX=0.569;exitY=0.99;exitDx=0;exitDy=0;exitPerimeter=0;entryX=0.5;entryY=0;entryDx=0;entryDy=0;" parent="1" source="n_9PKvbl7j-ViEUUjvDs-11" edge="1" target="n_9PKvbl7j-ViEUUjvDs-14">
          <mxGeometry relative="1" as="geometry">
            <mxPoint x="490" y="630" as="sourcePoint" />
            <mxPoint x="620" y="660" as="targetPoint" />
          </mxGeometry>
        </mxCell>
        <mxCell id="kim4gKY6Lfjgh0uR6b1r-33" value="1" style="edgeLabel;html=1;align=center;verticalAlign=middle;resizable=0;points=[];" vertex="1" connectable="0" parent="n_9PKvbl7j-ViEUUjvDs-15">
          <mxGeometry x="-0.1505" y="1" relative="1" as="geometry">
            <mxPoint as="offset" />
          </mxGeometry>
        </mxCell>
        <mxCell id="n_9PKvbl7j-ViEUUjvDs-16" value="Buku" style="whiteSpace=wrap;html=1;align=center;" parent="1" vertex="1">
          <mxGeometry x="635" y="870" width="85" height="40" as="geometry" />
        </mxCell>
        <mxCell id="n_9PKvbl7j-ViEUUjvDs-17" value="" style="endArrow=none;html=1;rounded=0;exitX=0.5;exitY=1;exitDx=0;exitDy=0;entryX=0.514;entryY=0.06;entryDx=0;entryDy=0;entryPerimeter=0;" parent="1" source="n_9PKvbl7j-ViEUUjvDs-14" target="n_9PKvbl7j-ViEUUjvDs-16" edge="1">
          <mxGeometry relative="1" as="geometry">
            <mxPoint x="440" y="1040" as="sourcePoint" />
            <mxPoint x="600" y="1040" as="targetPoint" />
          </mxGeometry>
        </mxCell>
        <mxCell id="kim4gKY6Lfjgh0uR6b1r-32" value="many" style="edgeLabel;html=1;align=center;verticalAlign=middle;resizable=0;points=[];" vertex="1" connectable="0" parent="n_9PKvbl7j-ViEUUjvDs-17">
          <mxGeometry x="-0.1068" y="-1" relative="1" as="geometry">
            <mxPoint as="offset" />
          </mxGeometry>
        </mxCell>
        <mxCell id="n_9PKvbl7j-ViEUUjvDs-18" value="nama_depan" style="ellipse;whiteSpace=wrap;html=1;align=center;" parent="1" vertex="1">
          <mxGeometry x="40" y="370" width="100" height="40" as="geometry" />
        </mxCell>
        <mxCell id="n_9PKvbl7j-ViEUUjvDs-19" value="nama_tengah" style="ellipse;whiteSpace=wrap;html=1;align=center;" parent="1" vertex="1">
          <mxGeometry x="140" y="310" width="100" height="40" as="geometry" />
        </mxCell>
        <mxCell id="n_9PKvbl7j-ViEUUjvDs-20" value="nama_belakang" style="ellipse;whiteSpace=wrap;html=1;align=center;" parent="1" vertex="1">
          <mxGeometry x="240" y="370" width="100" height="40" as="geometry" />
        </mxCell>
        <mxCell id="n_9PKvbl7j-ViEUUjvDs-21" value="" style="endArrow=none;html=1;rounded=0;exitX=0.5;exitY=0;exitDx=0;exitDy=0;entryX=0.5;entryY=1;entryDx=0;entryDy=0;" parent="1" source="n_9PKvbl7j-ViEUUjvDs-1" target="n_9PKvbl7j-ViEUUjvDs-2" edge="1">
          <mxGeometry relative="1" as="geometry">
            <mxPoint x="220" y="420" as="sourcePoint" />
            <mxPoint x="380" y="420" as="targetPoint" />
          </mxGeometry>
        </mxCell>
        <mxCell id="n_9PKvbl7j-ViEUUjvDs-22" value="" style="endArrow=none;html=1;rounded=0;exitX=0.472;exitY=-0.003;exitDx=0;exitDy=0;exitPerimeter=0;entryX=0.475;entryY=1.011;entryDx=0;entryDy=0;entryPerimeter=0;" parent="1" source="n_9PKvbl7j-ViEUUjvDs-2" target="n_9PKvbl7j-ViEUUjvDs-19" edge="1">
          <mxGeometry relative="1" as="geometry">
            <mxPoint x="100" y="470" as="sourcePoint" />
            <mxPoint x="200" y="390" as="targetPoint" />
          </mxGeometry>
        </mxCell>
        <mxCell id="n_9PKvbl7j-ViEUUjvDs-23" value="" style="endArrow=none;html=1;rounded=0;exitX=0.5;exitY=0;exitDx=0;exitDy=0;exitPerimeter=0;entryX=0;entryY=0.5;entryDx=0;entryDy=0;" parent="1" source="n_9PKvbl7j-ViEUUjvDs-2" target="n_9PKvbl7j-ViEUUjvDs-20" edge="1">
          <mxGeometry relative="1" as="geometry">
            <mxPoint x="100" y="380" as="sourcePoint" />
            <mxPoint x="260" y="380" as="targetPoint" />
          </mxGeometry>
        </mxCell>
        <mxCell id="n_9PKvbl7j-ViEUUjvDs-24" value="" style="endArrow=none;html=1;rounded=0;exitX=0.439;exitY=0;exitDx=0;exitDy=0;exitPerimeter=0;entryX=1;entryY=0.5;entryDx=0;entryDy=0;entryPerimeter=0;" parent="1" source="n_9PKvbl7j-ViEUUjvDs-2" target="n_9PKvbl7j-ViEUUjvDs-18" edge="1">
          <mxGeometry relative="1" as="geometry">
            <mxPoint x="80" y="400" as="sourcePoint" />
            <mxPoint x="240" y="400" as="targetPoint" />
          </mxGeometry>
        </mxCell>
        <mxCell id="n_9PKvbl7j-ViEUUjvDs-26" value="jurusan" style="ellipse;whiteSpace=wrap;html=1;align=center;" parent="1" vertex="1">
          <mxGeometry y="480" width="60" height="40" as="geometry" />
        </mxCell>
        <mxCell id="n_9PKvbl7j-ViEUUjvDs-27" value="alamat" style="ellipse;whiteSpace=wrap;html=1;align=center;" parent="1" vertex="1">
          <mxGeometry x="50" y="530" width="60" height="40" as="geometry" />
        </mxCell>
        <mxCell id="n_9PKvbl7j-ViEUUjvDs-28" value="" style="endArrow=none;html=1;rounded=0;exitX=0;exitY=0.5;exitDx=0;exitDy=0;" parent="1" source="n_9PKvbl7j-ViEUUjvDs-1" edge="1">
          <mxGeometry relative="1" as="geometry">
            <mxPoint x="130" y="460" as="sourcePoint" />
            <mxPoint x="60" y="500" as="targetPoint" />
          </mxGeometry>
        </mxCell>
        <mxCell id="n_9PKvbl7j-ViEUUjvDs-29" value="" style="endArrow=none;html=1;rounded=0;exitX=0.003;exitY=0.467;exitDx=0;exitDy=0;exitPerimeter=0;" parent="1" source="n_9PKvbl7j-ViEUUjvDs-1" target="n_9PKvbl7j-ViEUUjvDs-3" edge="1">
          <mxGeometry relative="1" as="geometry">
            <mxPoint x="140" y="490" as="sourcePoint" />
            <mxPoint x="220" y="490" as="targetPoint" />
          </mxGeometry>
        </mxCell>
        <mxCell id="n_9PKvbl7j-ViEUUjvDs-30" value="" style="endArrow=none;html=1;rounded=0;entryX=0.001;entryY=0.561;entryDx=0;entryDy=0;entryPerimeter=0;exitX=0.897;exitY=0.172;exitDx=0;exitDy=0;exitPerimeter=0;" parent="1" source="n_9PKvbl7j-ViEUUjvDs-27" target="n_9PKvbl7j-ViEUUjvDs-1" edge="1">
          <mxGeometry relative="1" as="geometry">
            <mxPoint x="60" y="550" as="sourcePoint" />
            <mxPoint x="220" y="550" as="targetPoint" />
          </mxGeometry>
        </mxCell>
        <mxCell id="n_9PKvbl7j-ViEUUjvDs-31" value="nim" style="ellipse;whiteSpace=wrap;html=1;align=center;fontStyle=4;" parent="1" vertex="1">
          <mxGeometry x="440" y="340" width="60" height="40" as="geometry" />
        </mxCell>
        <mxCell id="n_9PKvbl7j-ViEUUjvDs-32" value="jurusan" style="ellipse;whiteSpace=wrap;html=1;align=center;" parent="1" vertex="1">
          <mxGeometry x="370" y="340" width="60" height="40" as="geometry" />
        </mxCell>
        <mxCell id="n_9PKvbl7j-ViEUUjvDs-33" value="nama" style="ellipse;whiteSpace=wrap;html=1;align=center;" parent="1" vertex="1">
          <mxGeometry x="470" y="400" width="60" height="40" as="geometry" />
        </mxCell>
        <mxCell id="n_9PKvbl7j-ViEUUjvDs-34" value="alamat" style="ellipse;whiteSpace=wrap;html=1;align=center;" parent="1" vertex="1">
          <mxGeometry x="320" y="410" width="60" height="40" as="geometry" />
        </mxCell>
        <mxCell id="qQHPtw9gU3DnxDSDHL4Y-1" value="" style="endArrow=none;html=1;rounded=0;entryX=0.5;entryY=0;entryDx=0;entryDy=0;" parent="1" source="n_9PKvbl7j-ViEUUjvDs-34" target="n_9PKvbl7j-ViEUUjvDs-4" edge="1">
          <mxGeometry relative="1" as="geometry">
            <mxPoint x="380" y="350" as="sourcePoint" />
            <mxPoint x="480" y="460" as="targetPoint" />
          </mxGeometry>
        </mxCell>
        <mxCell id="qQHPtw9gU3DnxDSDHL4Y-2" value="" style="endArrow=none;html=1;rounded=0;exitX=0.5;exitY=1;exitDx=0;exitDy=0;entryX=0.5;entryY=0;entryDx=0;entryDy=0;" parent="1" source="n_9PKvbl7j-ViEUUjvDs-32" target="n_9PKvbl7j-ViEUUjvDs-4" edge="1">
          <mxGeometry relative="1" as="geometry">
            <mxPoint x="420" y="430" as="sourcePoint" />
            <mxPoint x="580" y="430" as="targetPoint" />
          </mxGeometry>
        </mxCell>
        <mxCell id="qQHPtw9gU3DnxDSDHL4Y-3" value="" style="endArrow=none;html=1;rounded=0;exitX=0.499;exitY=0.025;exitDx=0;exitDy=0;exitPerimeter=0;entryX=0.354;entryY=0.938;entryDx=0;entryDy=0;entryPerimeter=0;" parent="1" source="n_9PKvbl7j-ViEUUjvDs-4" target="n_9PKvbl7j-ViEUUjvDs-31" edge="1">
          <mxGeometry relative="1" as="geometry">
            <mxPoint x="420" y="420" as="sourcePoint" />
            <mxPoint x="520" y="380" as="targetPoint" />
          </mxGeometry>
        </mxCell>
        <mxCell id="qQHPtw9gU3DnxDSDHL4Y-4" value="" style="endArrow=none;html=1;rounded=0;exitX=0.518;exitY=0.003;exitDx=0;exitDy=0;exitPerimeter=0;entryX=0;entryY=1;entryDx=0;entryDy=0;" parent="1" source="n_9PKvbl7j-ViEUUjvDs-4" target="n_9PKvbl7j-ViEUUjvDs-33" edge="1">
          <mxGeometry relative="1" as="geometry">
            <mxPoint x="420" y="420" as="sourcePoint" />
            <mxPoint x="580" y="420" as="targetPoint" />
          </mxGeometry>
        </mxCell>
        <mxCell id="qQHPtw9gU3DnxDSDHL4Y-5" value="nama" style="ellipse;whiteSpace=wrap;html=1;align=center;" parent="1" vertex="1">
          <mxGeometry x="590" y="370" width="70" height="40" as="geometry" />
        </mxCell>
        <mxCell id="qQHPtw9gU3DnxDSDHL4Y-6" value="jurusan" style="ellipse;whiteSpace=wrap;html=1;align=center;" parent="1" vertex="1">
          <mxGeometry x="685" y="370" width="70" height="40" as="geometry" />
        </mxCell>
        <mxCell id="qQHPtw9gU3DnxDSDHL4Y-7" value="nomer_anggota" style="ellipse;whiteSpace=wrap;html=1;align=center;fontStyle=4;" parent="1" vertex="1">
          <mxGeometry x="530" y="420" width="95" height="40" as="geometry" />
        </mxCell>
        <mxCell id="qQHPtw9gU3DnxDSDHL4Y-8" value="masa_berlaku" style="ellipse;whiteSpace=wrap;html=1;align=center;" parent="1" vertex="1">
          <mxGeometry x="715" y="420" width="100" height="40" as="geometry" />
        </mxCell>
        <mxCell id="qQHPtw9gU3DnxDSDHL4Y-9" value="" style="endArrow=none;html=1;rounded=0;entryX=0.235;entryY=0.974;entryDx=0;entryDy=0;entryPerimeter=0;exitX=0.5;exitY=0;exitDx=0;exitDy=0;" parent="1" source="n_9PKvbl7j-ViEUUjvDs-11" target="qQHPtw9gU3DnxDSDHL4Y-6" edge="1">
          <mxGeometry relative="1" as="geometry">
            <mxPoint x="720" y="470" as="sourcePoint" />
            <mxPoint x="830" y="440" as="targetPoint" />
          </mxGeometry>
        </mxCell>
        <mxCell id="qQHPtw9gU3DnxDSDHL4Y-10" value="" style="endArrow=none;html=1;rounded=0;entryX=0.485;entryY=0.02;entryDx=0;entryDy=0;entryPerimeter=0;" parent="1" source="qQHPtw9gU3DnxDSDHL4Y-5" target="n_9PKvbl7j-ViEUUjvDs-11" edge="1">
          <mxGeometry relative="1" as="geometry">
            <mxPoint x="650" y="460" as="sourcePoint" />
            <mxPoint x="810" y="460" as="targetPoint" />
          </mxGeometry>
        </mxCell>
        <mxCell id="qQHPtw9gU3DnxDSDHL4Y-12" value="" style="endArrow=none;html=1;rounded=0;entryX=0.5;entryY=1;entryDx=0;entryDy=0;exitX=0.5;exitY=0;exitDx=0;exitDy=0;" parent="1" source="n_9PKvbl7j-ViEUUjvDs-11" target="qQHPtw9gU3DnxDSDHL4Y-8" edge="1">
          <mxGeometry relative="1" as="geometry">
            <mxPoint x="710" y="480" as="sourcePoint" />
            <mxPoint x="860" y="460" as="targetPoint" />
          </mxGeometry>
        </mxCell>
        <mxCell id="qQHPtw9gU3DnxDSDHL4Y-13" value="" style="endArrow=none;html=1;rounded=0;entryX=0.436;entryY=0;entryDx=0;entryDy=0;entryPerimeter=0;exitX=0.5;exitY=1;exitDx=0;exitDy=0;" parent="1" source="qQHPtw9gU3DnxDSDHL4Y-7" target="n_9PKvbl7j-ViEUUjvDs-11" edge="1">
          <mxGeometry relative="1" as="geometry">
            <mxPoint x="550" y="430" as="sourcePoint" />
            <mxPoint x="710" y="430" as="targetPoint" />
          </mxGeometry>
        </mxCell>
        <mxCell id="kim4gKY6Lfjgh0uR6b1r-2" value="nomor_anggota" style="ellipse;whiteSpace=wrap;html=1;align=center;fontStyle=4;" vertex="1" parent="1">
          <mxGeometry x="700" y="570" width="95" height="40" as="geometry" />
        </mxCell>
        <mxCell id="kim4gKY6Lfjgh0uR6b1r-3" value="nomor_buku" style="ellipse;whiteSpace=wrap;html=1;align=center;fontStyle=4;" vertex="1" parent="1">
          <mxGeometry x="755" y="620" width="95" height="40" as="geometry" />
        </mxCell>
        <mxCell id="kim4gKY6Lfjgh0uR6b1r-4" value="judul_buku" style="ellipse;whiteSpace=wrap;html=1;align=center;" vertex="1" parent="1">
          <mxGeometry x="747.5" y="670" width="100" height="40" as="geometry" />
        </mxCell>
        <mxCell id="kim4gKY6Lfjgh0uR6b1r-5" value="denda" style="ellipse;whiteSpace=wrap;html=1;align=center;" vertex="1" parent="1">
          <mxGeometry x="730" y="720" width="100" height="40" as="geometry" />
        </mxCell>
        <mxCell id="kim4gKY6Lfjgh0uR6b1r-6" value="" style="endArrow=none;html=1;rounded=0;exitX=1;exitY=0.5;exitDx=0;exitDy=0;entryX=0.449;entryY=1.009;entryDx=0;entryDy=0;entryPerimeter=0;" edge="1" parent="1" source="n_9PKvbl7j-ViEUUjvDs-14" target="kim4gKY6Lfjgh0uR6b1r-2">
          <mxGeometry relative="1" as="geometry">
            <mxPoint x="650" y="700" as="sourcePoint" />
            <mxPoint x="750" y="630" as="targetPoint" />
          </mxGeometry>
        </mxCell>
        <mxCell id="kim4gKY6Lfjgh0uR6b1r-7" value="" style="endArrow=none;html=1;rounded=0;entryX=0.087;entryY=0.749;entryDx=0;entryDy=0;exitX=1;exitY=0.5;exitDx=0;exitDy=0;entryPerimeter=0;" edge="1" parent="1" source="n_9PKvbl7j-ViEUUjvDs-14" target="kim4gKY6Lfjgh0uR6b1r-3">
          <mxGeometry relative="1" as="geometry">
            <mxPoint x="690" y="650" as="sourcePoint" />
            <mxPoint x="850" y="650" as="targetPoint" />
          </mxGeometry>
        </mxCell>
        <mxCell id="kim4gKY6Lfjgh0uR6b1r-8" value="" style="endArrow=none;html=1;rounded=0;entryX=0.012;entryY=0.457;entryDx=0;entryDy=0;entryPerimeter=0;exitX=1;exitY=0.5;exitDx=0;exitDy=0;" edge="1" parent="1" source="n_9PKvbl7j-ViEUUjvDs-14" target="kim4gKY6Lfjgh0uR6b1r-4">
          <mxGeometry relative="1" as="geometry">
            <mxPoint x="680" y="700" as="sourcePoint" />
            <mxPoint x="840" y="700" as="targetPoint" />
          </mxGeometry>
        </mxCell>
        <mxCell id="kim4gKY6Lfjgh0uR6b1r-9" value="" style="endArrow=none;html=1;rounded=0;exitX=0.043;exitY=0.342;exitDx=0;exitDy=0;exitPerimeter=0;entryX=1;entryY=0.5;entryDx=0;entryDy=0;" edge="1" parent="1" source="kim4gKY6Lfjgh0uR6b1r-5" target="n_9PKvbl7j-ViEUUjvDs-14">
          <mxGeometry relative="1" as="geometry">
            <mxPoint x="690" y="710" as="sourcePoint" />
            <mxPoint x="720" y="690" as="targetPoint" />
          </mxGeometry>
        </mxCell>
        <mxCell id="kim4gKY6Lfjgh0uR6b1r-10" value="kode_peminjaman" style="ellipse;whiteSpace=wrap;html=1;align=center;" vertex="1" parent="1">
          <mxGeometry x="495" y="590" width="120" height="40" as="geometry" />
        </mxCell>
        <mxCell id="kim4gKY6Lfjgh0uR6b1r-11" value="kode_peminjaman" style="ellipse;whiteSpace=wrap;html=1;align=center;" vertex="1" parent="1">
          <mxGeometry x="480" y="710" width="120" height="40" as="geometry" />
        </mxCell>
        <mxCell id="kim4gKY6Lfjgh0uR6b1r-12" value="kode_peminjaman" style="ellipse;whiteSpace=wrap;html=1;align=center;" vertex="1" parent="1">
          <mxGeometry x="460" y="640" width="120" height="40" as="geometry" />
        </mxCell>
        <mxCell id="kim4gKY6Lfjgh0uR6b1r-14" value="" style="endArrow=none;html=1;rounded=0;entryX=0;entryY=0.5;entryDx=0;entryDy=0;exitX=0.752;exitY=0.986;exitDx=0;exitDy=0;exitPerimeter=0;" edge="1" parent="1" source="kim4gKY6Lfjgh0uR6b1r-10" target="n_9PKvbl7j-ViEUUjvDs-14">
          <mxGeometry relative="1" as="geometry">
            <mxPoint x="520" y="690" as="sourcePoint" />
            <mxPoint x="680" y="690" as="targetPoint" />
          </mxGeometry>
        </mxCell>
        <mxCell id="kim4gKY6Lfjgh0uR6b1r-15" value="" style="endArrow=none;html=1;rounded=0;entryX=0;entryY=0.5;entryDx=0;entryDy=0;exitX=0.556;exitY=0.99;exitDx=0;exitDy=0;exitPerimeter=0;" edge="1" parent="1" source="kim4gKY6Lfjgh0uR6b1r-12" target="n_9PKvbl7j-ViEUUjvDs-14">
          <mxGeometry relative="1" as="geometry">
            <mxPoint x="520" y="690" as="sourcePoint" />
            <mxPoint x="680" y="690" as="targetPoint" />
          </mxGeometry>
        </mxCell>
        <mxCell id="kim4gKY6Lfjgh0uR6b1r-17" value="" style="endArrow=none;html=1;rounded=0;entryX=0;entryY=0.5;entryDx=0;entryDy=0;exitX=0.711;exitY=0.06;exitDx=0;exitDy=0;exitPerimeter=0;" edge="1" parent="1" source="kim4gKY6Lfjgh0uR6b1r-11" target="n_9PKvbl7j-ViEUUjvDs-14">
          <mxGeometry relative="1" as="geometry">
            <mxPoint x="490" y="690" as="sourcePoint" />
            <mxPoint x="650" y="690" as="targetPoint" />
          </mxGeometry>
        </mxCell>
        <mxCell id="kim4gKY6Lfjgh0uR6b1r-18" value="nomor_buku" style="ellipse;whiteSpace=wrap;html=1;align=center;fontStyle=4;" vertex="1" parent="1">
          <mxGeometry x="495" y="970" width="95" height="40" as="geometry" />
        </mxCell>
        <mxCell id="kim4gKY6Lfjgh0uR6b1r-19" value="judul_buku" style="ellipse;whiteSpace=wrap;html=1;align=center;" vertex="1" parent="1">
          <mxGeometry x="490" y="920" width="100" height="40" as="geometry" />
        </mxCell>
        <mxCell id="kim4gKY6Lfjgh0uR6b1r-20" value="tahun_terbit" style="ellipse;whiteSpace=wrap;html=1;align=center;" vertex="1" parent="1">
          <mxGeometry x="580" y="1000" width="100" height="40" as="geometry" />
        </mxCell>
        <mxCell id="kim4gKY6Lfjgh0uR6b1r-21" value="penerbit" style="ellipse;whiteSpace=wrap;html=1;align=center;" vertex="1" parent="1">
          <mxGeometry x="685" y="1000" width="100" height="40" as="geometry" />
        </mxCell>
        <mxCell id="kim4gKY6Lfjgh0uR6b1r-22" value="jenis_buku" style="ellipse;whiteSpace=wrap;html=1;align=center;" vertex="1" parent="1">
          <mxGeometry x="740" y="960" width="100" height="40" as="geometry" />
        </mxCell>
        <mxCell id="kim4gKY6Lfjgh0uR6b1r-23" value="pengarang" style="ellipse;whiteSpace=wrap;html=1;align=center;" vertex="1" parent="1">
          <mxGeometry x="747.5" y="910" width="100" height="40" as="geometry" />
        </mxCell>
        <mxCell id="kim4gKY6Lfjgh0uR6b1r-24" value="" style="endArrow=none;html=1;rounded=0;exitX=1;exitY=0.5;exitDx=0;exitDy=0;entryX=0.419;entryY=0.99;entryDx=0;entryDy=0;entryPerimeter=0;" edge="1" parent="1" source="kim4gKY6Lfjgh0uR6b1r-19" target="n_9PKvbl7j-ViEUUjvDs-16">
          <mxGeometry relative="1" as="geometry">
            <mxPoint x="620" y="810" as="sourcePoint" />
            <mxPoint x="670" y="920" as="targetPoint" />
          </mxGeometry>
        </mxCell>
        <mxCell id="kim4gKY6Lfjgh0uR6b1r-25" value="" style="endArrow=none;html=1;rounded=0;entryX=0;entryY=0.5;entryDx=0;entryDy=0;exitX=0.5;exitY=1;exitDx=0;exitDy=0;" edge="1" parent="1" source="n_9PKvbl7j-ViEUUjvDs-16" target="kim4gKY6Lfjgh0uR6b1r-23">
          <mxGeometry relative="1" as="geometry">
            <mxPoint x="600" y="900" as="sourcePoint" />
            <mxPoint x="760" y="900" as="targetPoint" />
          </mxGeometry>
        </mxCell>
        <mxCell id="kim4gKY6Lfjgh0uR6b1r-27" value="" style="endArrow=none;html=1;rounded=0;entryX=0;entryY=0.5;entryDx=0;entryDy=0;exitX=0.482;exitY=0.997;exitDx=0;exitDy=0;exitPerimeter=0;" edge="1" parent="1" source="n_9PKvbl7j-ViEUUjvDs-16" target="kim4gKY6Lfjgh0uR6b1r-22">
          <mxGeometry relative="1" as="geometry">
            <mxPoint x="620" y="970" as="sourcePoint" />
            <mxPoint x="780" y="970" as="targetPoint" />
          </mxGeometry>
        </mxCell>
        <mxCell id="kim4gKY6Lfjgh0uR6b1r-29" value="" style="endArrow=none;html=1;rounded=0;entryX=0.311;entryY=-0.01;entryDx=0;entryDy=0;entryPerimeter=0;exitX=0.456;exitY=0.993;exitDx=0;exitDy=0;exitPerimeter=0;" edge="1" parent="1" source="n_9PKvbl7j-ViEUUjvDs-16" target="kim4gKY6Lfjgh0uR6b1r-21">
          <mxGeometry relative="1" as="geometry">
            <mxPoint x="670" y="920" as="sourcePoint" />
            <mxPoint x="800" y="980" as="targetPoint" />
            <Array as="points" />
          </mxGeometry>
        </mxCell>
        <mxCell id="kim4gKY6Lfjgh0uR6b1r-30" value="" style="endArrow=none;html=1;rounded=0;exitX=0.472;exitY=-0.085;exitDx=0;exitDy=0;exitPerimeter=0;entryX=0.444;entryY=0.996;entryDx=0;entryDy=0;entryPerimeter=0;" edge="1" parent="1" source="kim4gKY6Lfjgh0uR6b1r-20" target="n_9PKvbl7j-ViEUUjvDs-16">
          <mxGeometry relative="1" as="geometry">
            <mxPoint x="560" y="950" as="sourcePoint" />
            <mxPoint x="670" y="920" as="targetPoint" />
          </mxGeometry>
        </mxCell>
        <mxCell id="kim4gKY6Lfjgh0uR6b1r-31" value="" style="endArrow=none;html=1;rounded=0;exitX=0.948;exitY=0.202;exitDx=0;exitDy=0;exitPerimeter=0;entryX=0.425;entryY=0.999;entryDx=0;entryDy=0;entryPerimeter=0;" edge="1" parent="1" source="kim4gKY6Lfjgh0uR6b1r-18" target="n_9PKvbl7j-ViEUUjvDs-16">
          <mxGeometry relative="1" as="geometry">
            <mxPoint x="600" y="920" as="sourcePoint" />
            <mxPoint x="670" y="910" as="targetPoint" />
          </mxGeometry>
        </mxCell>
      </root>
    </mxGraphModel>
  </diagram>
</mxfile>
